<svg id="Layer_1_1_" enable-background="new 0 0 64 64" height="512" viewBox="0 0 64 64" width="512" xmlns="http://www.w3.org/2000/svg"><path d="m34 6h-28.586l2.293-2.293-1.414-1.414-4 4c-.391.391-.391 1.023 0 1.414l4 4 1.414-1.414-2.293-2.293h28.586c14.337 0 26 11.663 26 26s-11.663 26-26 26h-2c-15.104 0-27.454-12.021-27.982-27h8.033c.017.33.017.653.05.988.042.426.351.778.768.875l2.501.584c.132.64.301 1.271.506 1.892l-1.863 1.746c-.312.292-.404.752-.228 1.142.544 1.201 1.214 2.359 1.993 3.44.25.347.689.496 1.103.373l2.424-.737c.437.49.902.957 1.394 1.394l-.738 2.424c-.124.409.025.853.373 1.103 1.08.778 2.238 1.449 3.441 1.993.391.175.849.085 1.142-.228l1.746-1.864c.619.205 1.252.375 1.892.507l.584 2.501c.097.417.449.726.875.768.673.065 1.341.099 1.986.099s1.313-.034 1.988-.101c.426-.042.778-.351.875-.768l.584-2.501c.64-.132 1.271-.301 1.892-.506l1.746 1.863c.294.312.752.402 1.142.228 1.201-.544 2.359-1.214 3.44-1.993.348-.25.497-.693.373-1.103l-.737-2.424c.49-.437.957-.902 1.394-1.394l2.424.738c.407.125.853-.026 1.103-.373.778-1.08 1.449-2.238 1.993-3.441.177-.39.085-.85-.228-1.142l-1.863-1.746c.205-.62.374-1.252.506-1.892l2.501-.584c.417-.097.726-.449.768-.875.065-.673.099-1.341.099-1.986s-.034-1.313-.101-1.988c-.042-.426-.351-.778-.768-.875l-2.501-.584c-.132-.639-.301-1.271-.506-1.892l1.864-1.746c.312-.292.404-.752.228-1.142-.542-1.199-1.213-2.356-1.994-3.44-.25-.347-.691-.499-1.103-.373l-2.424.737c-.438-.491-.903-.958-1.393-1.394l.737-2.424c.124-.409-.025-.853-.373-1.103-1.08-.778-2.238-1.449-3.441-1.993-.39-.174-.848-.085-1.142.228l-1.746 1.864c-.619-.205-1.252-.375-1.892-.507l-.584-2.501c-.097-.417-.449-.726-.875-.768-1.35-.133-2.627-.133-3.977 0-.426.042-.778.351-.875.768l-.584 2.501c-.64.132-1.271.301-1.892.506l-1.746-1.863c-.293-.312-.751-.401-1.142-.228-1.201.544-2.359 1.214-3.44 1.993-.348.25-.497.693-.373 1.103l.737 2.424c-.491.438-.958.903-1.394 1.393l-2.424-.737c-.408-.124-.853.026-1.103.373-.778 1.08-1.449 2.238-1.993 3.441-.177.39-.085.85.228 1.142l1.864 1.746c-.205.619-.375 1.252-.507 1.892l-2.501.584c-.417.097-.726.449-.768.875-.033.335-.033.658-.05.988h-9.046c-.553 0-1 .447-1 1 0 16.542 13.458 30 30 30h2c15.439 0 28-12.561 28-28s-12.561-28-28-28zm-19.966 24.918 2.427-.566c.394-.092.693-.412.759-.812.158-.958.411-1.903.752-2.81.143-.379.043-.806-.252-1.082l-1.807-1.693c.321-.642.685-1.268 1.083-1.87l2.351.716c.387.117.807-.01 1.063-.322.617-.751 1.313-1.447 2.069-2.068.312-.257.438-.677.321-1.063l-.715-2.351c.603-.399 1.229-.762 1.87-1.084l1.692 1.807c.275.296.703.395 1.081.253.908-.341 1.854-.594 2.811-.752.399-.065.72-.365.812-.759l.566-2.427c.734-.045 1.43-.045 2.164 0l.566 2.427c.092.394.412.693.812.759.958.158 1.903.411 2.81.752.379.145.806.043 1.082-.252l1.693-1.807c.642.321 1.268.685 1.87 1.083l-.716 2.351c-.117.387.01.807.322 1.063.751.617 1.447 1.313 2.068 2.069.257.312.677.438 1.063.321l2.351-.715c.4.604.763 1.229 1.084 1.87l-1.807 1.692c-.295.276-.395.702-.253 1.081.341.908.594 1.854.752 2.811.065.399.365.72.759.812l2.427.566c.024.367.036.728.036 1.082s-.012.715-.034 1.082l-2.427.566c-.394.092-.693.412-.759.812-.158.957-.411 1.902-.752 2.811-.142.379-.042.805.253 1.081l1.807 1.692c-.322.643-.686 1.269-1.084 1.871l-2.351-.716c-.388-.119-.807.009-1.063.321-.619.754-1.315 1.45-2.069 2.069-.312.257-.438.677-.321 1.063l.715 2.351c-.603.399-1.229.762-1.87 1.084l-1.692-1.807c-.276-.297-.705-.396-1.081-.253-.908.341-1.854.594-2.811.752-.399.065-.72.365-.812.759l-.566 2.427c-.734.045-1.43.045-2.164 0l-.566-2.427c-.092-.394-.412-.693-.812-.759-.958-.158-1.903-.411-2.81-.752-.38-.146-.807-.044-1.082.252l-1.693 1.807c-.642-.321-1.268-.685-1.87-1.083l.716-2.351c.117-.387-.01-.807-.321-1.063-.754-.619-1.45-1.315-2.069-2.069-.257-.312-.676-.44-1.063-.321l-2.351.715c-.399-.603-.762-1.229-1.084-1.87l1.807-1.692c.295-.276.395-.702.253-1.081-.341-.908-.594-1.854-.752-2.811-.065-.399-.365-.72-.759-.812l-2.427-.566c-.024-.367-.036-.728-.036-1.082s.012-.715.034-1.082z"/><path d="m6.293 13.293-4 4c-.391.391-.391 1.023 0 1.414l4 4 1.414-1.414-2.293-2.293h11.586v-2h-11.586l2.293-2.293z"/><path d="m23 32c0 4.963 4.037 9 9 9s9-4.037 9-9-4.037-9-9-9-9 4.037-9 9zm9-7c3.859 0 7 3.141 7 7s-3.141 7-7 7-7-3.141-7-7 3.141-7 7-7z"/><path d="m37.899 41.286 1.074 1.688c.61-.389 1.192-.832 1.73-1.317l-1.342-1.484c-.453.41-.945.785-1.462 1.113z"/><path d="m42.848 33.833 1.973.332c.119-.709.18-1.438.178-2.106l.003-.106-2.002.047c0 .617-.051 1.233-.152 1.833z"/><path d="m41.165 38.084 1.666 1.107c.4-.604.753-1.244 1.048-1.905l-1.826-.814c-.25.558-.548 1.101-.888 1.612z"/><path d="m33.617 42.882.291 1.979c.718-.105 1.431-.272 2.118-.496l-.619-1.902c-.581.188-1.183.33-1.79.419z"/><path d="m20.363 37.8c.323.648.704 1.273 1.131 1.858l1.615-1.18c-.361-.495-.684-1.023-.957-1.571z"/><path d="m42.646 29.223 1.936-.506c-.184-.703-.427-1.393-.723-2.05l-1.824.82c.249.557.455 1.14.611 1.736z"/><path d="m28.518 44.528c.698.193 1.417.329 2.137.403l.205-1.99c-.609-.062-1.217-.177-1.807-.341z"/><path d="m23.726 42.027c.56.462 1.16.879 1.786 1.24l1-1.732c-.53-.306-1.039-.659-1.513-1.051z"/><path d="m21.761 27.972-1.861-.732c-.266.675-.476 1.377-.623 2.085l1.957.41c.125-.6.302-1.193.527-1.763z"/><path d="m21.242 34.308c-.127-.597-.205-1.211-.231-1.824l-1.998.086c.031.725.123 1.45.274 2.156z"/><path d="m24.287 24.158-1.406-1.424c-.518.512-.994 1.066-1.415 1.647l1.619 1.174c.357-.493.762-.962 1.202-1.397z"/><path d="m32.656 21.02.123-1.996c-.714-.043-1.449-.027-2.174.051l.211 1.988c.614-.064 1.238-.081 1.84-.043z"/><path d="m37.987 20.458c-.647-.336-1.323-.617-2.01-.837l-.609 1.904c.579.186 1.15.424 1.697.708z"/><path d="m40.597 25.137 1.562-1.248c-.451-.565-.954-1.097-1.493-1.579l-1.334 1.49c.457.409.883.858 1.265 1.337z"/><path d="m28.138 21.696-.703-1.873c-.679.255-1.34.569-1.964.933l1.006 1.729c.528-.308 1.086-.574 1.661-.789z"/></svg>