<svg height="496pt" viewBox="0 0 496 496" width="496pt" xmlns="http://www.w3.org/2000/svg"><path d="m248 72c-40.832031 0-80.617188 14.304688-112.03125 40.265625l10.183594 12.335937c28.566406-23.601562 64.726562-36.601562 101.847656-36.601562 88.222656 0 160 71.777344 160 160 0 37.113281-13 73.28125-36.601562 101.839844l12.328124 10.191406c25.96875-31.414062 40.273438-71.207031 40.273438-112.03125 0-97.046875-78.953125-176-176-176zm0 0"/><path d="m248 408c-88.222656 0-160-71.777344-160-160 0-37.113281 13-73.28125 36.601562-101.839844l-12.328124-10.191406c-25.96875 31.414062-40.273438 71.207031-40.273438 112.03125 0 97.046875 78.953125 176 176 176 40.832031 0 80.617188-14.304688 112.03125-40.265625l-10.183594-12.335937c-28.566406 23.601562-64.726562 36.601562-101.847656 36.601562zm0 0"/><path d="m496 309.542969v-123.085938l-37.105469-13.914062c-2.488281-6.957031-5.300781-13.765625-8.40625-20.335938l16.390625-36.054687-87.039062-87.03125-36.054688 16.390625c-6.5625-3.105469-13.378906-5.917969-20.335937-8.40625l-13.90625-37.105469h-123.085938l-13.90625 37.097656c-6.957031 2.488282-13.773437 5.300782-20.335937 8.40625l-36.054688-16.382812-87.039062 87.03125 16.390625 36.054687c-3.105469 6.570313-5.917969 13.378907-8.40625 20.335938l-37.105469 13.914062v123.085938l37.105469 13.914062c2.488281 6.957031 5.300781 13.765625 8.40625 20.335938l-16.390625 36.054687 87.039062 87.03125 36.054688-16.390625c6.570312 3.105469 13.386718 5.925781 20.335937 8.40625l13.90625 37.105469h123.09375l13.90625-37.097656c6.949219-2.488282 13.765625-5.300782 20.335938-8.40625l36.054687 16.390625 87.039063-87.03125-16.390625-36.054688c3.105468-6.570312 5.917968-13.375 8.40625-20.335937zm-48.273438 66.824219-71.351562 71.351562-32.839844-14.917969-3.398437 1.6875c-8.105469 4.007813-16.65625 7.542969-25.425781 10.511719l-3.589844 1.214844-12.664063 33.785156h-100.914062l-12.671875-33.785156-3.589844-1.214844c-8.769531-2.96875-17.320312-6.503906-25.425781-10.511719l-3.390625-1.6875-32.832032 14.925781-71.351562-71.351562 14.917969-32.832031-1.679688-3.398438c-4.007812-8.097656-7.542969-16.65625-10.511719-25.425781l-1.222656-3.597656-33.785156-12.664063v-100.914062l33.785156-12.664063 1.214844-3.589844c2.96875-8.769531 6.503906-17.328124 10.511719-25.425781l1.679687-3.398437-14.917968-32.832032 71.351562-71.351562 32.847656 14.917969 3.40625-1.6875c8.089844-4.007813 16.632813-7.542969 25.410156-10.511719l3.589844-1.214844 12.664063-33.785156h100.90625l12.671875 33.785156 3.589844 1.214844c8.777343 2.96875 17.320312 6.503906 25.410156 10.511719l3.40625 1.6875 32.839844-14.925781 71.351562 71.351562-14.917969 32.832031 1.679688 3.398438c4.007812 8.097656 7.542969 16.65625 10.511719 25.425781l1.214843 3.589844 33.792969 12.671875v100.914062l-33.785156 12.664063-1.214844 3.589844c-2.96875 8.769531-6.503906 17.328124-10.511719 25.425781l-1.679687 3.398437zm0 0"/><path d="m140.328125 305.976562 38.777344 60.3125c10.351562 16.09375 27.957031 25.710938 47.09375 25.710938h43.59375c19.144531 0 36.75-9.617188 47.101562-25.710938l38.785157-60.3125c13.289062-20.695312 20.320312-44.640624 20.320312-69.222656v-4.753906c0-52.550781-32.9375-100.558594-81.960938-119.464844-14.671874-5.664062-30.167968-8.535156-46.039062-8.535156-70.574219 0-128 57.425781-128 128v4.753906c0 24.582032 7.03125 48.527344 20.328125 69.222656zm107.671875 22.023438c28.769531 0 56.816406-4.246094 82.425781-12.335938l-13.058593 20.304688c-44.359376 10.550781-94.382813 10.550781-138.734376 0l-13.046874-20.304688c25.597656 8.089844 53.644531 12.335938 82.414062 12.335938zm21.800781 48h-43.59375c-13.671875 0-26.246093-6.863281-33.648437-18.367188l-1.734375-2.695312c18.511719 3.351562 37.664062 5.0625 57.175781 5.0625s38.664062-1.710938 57.175781-5.070312l-1.734375 2.695312c-7.394531 11.511719-19.96875 18.375-33.640625 18.375zm90.199219-144v4.753906c0 20.015625-5.382812 39.503906-15.488281 56.703125-14.3125 6.023438-29.726563 10.65625-45.878907 13.765625l8.464844-43.535156c11.757813-1.542969 20.902344-11.511719 20.902344-23.6875 0-11.535156-8.191406-21.191406-19.054688-23.480469l-11.320312-84.894531c37.664062 18.710938 62.375 57.824219 62.375 100.375zm-48 8c0 4.40625-3.585938 8-8 8s-8-3.59375-8-8 3.585938-8 8-8 8 3.59375 8 8zm-31.414062-115.105469 12.511718 93.847657c-7.738281 3.984374-13.097656 11.96875-13.097656 21.257812 0 8.617188 4.609375 16.128906 11.449219 20.359375l-9.625 49.472656c-11.070313 1.390625-22.367188 2.167969-33.824219 2.167969-11.742188 0-23.320312-.808594-34.664062-2.265625l-14.808594-50.765625c5.71875-4.394531 9.472656-11.214844 9.472656-18.96875 0-8.734375-4.734375-16.320312-11.734375-20.519531l18.902344-94.550781c10.390625-3.195313 21.40625-4.929688 32.832031-4.929688 11.152344 0 22.0625 1.695312 32.585938 4.894531zm-96.585938 107.105469c4.414062 0 8 3.59375 8 8s-3.585938 8-8 8-8-3.59375-8-8 3.585938-8 8-8zm-48 0c0-43.535156 25.023438-81.265625 61.398438-99.785156l-16.824219 84.128906c-11.597657 1.679688-20.574219 11.59375-20.574219 23.65625 0 13 10.40625 23.558594 23.320312 23.929688l12.542969 43.015624c-15.605469-3.105468-30.503906-7.648437-44.367187-13.488281-10.113282-17.199219-15.496094-36.6875-15.496094-56.703125zm0 0"/><path d="m240 32h16v16h-16zm0 0"/><path d="m89.605469 100.921875 11.3125-11.3125 11.3125 11.3125-11.3125 11.3125zm0 0"/><path d="m32 240h16v16h-16zm0 0"/><path d="m89.605469 395.078125 11.3125-11.3125 11.3125 11.3125-11.3125 11.3125zm0 0"/><path d="m240 448h16v16h-16zm0 0"/><path d="m383.761719 395.078125 11.3125-11.3125 11.3125 11.3125-11.3125 11.3125zm0 0"/><path d="m448 240h16v16h-16zm0 0"/><path d="m383.761719 100.921875 11.3125-11.3125 11.3125 11.3125-11.3125 11.3125zm0 0"/></svg>